<?xml version="1.0" encoding="UTF-8"?>
<svg xmlns="http://www.w3.org/2000/svg" viewBox="0 0 64 64" color="#000" role="img" aria-label="Eier">
  <path fill="currentColor" d="M30 7.5h3.5v0.5h-3.5zM28.5 8h7v0.5h-7zM27 8.5h9.5v0.5h-9.5zM26.5 9h11v0.5h-11zM25.5 9.5h12.5v0.5h-12.5zM24.5 10h14.5v0.5h-14.5zM24 10.5h15.5v0.5h-15.5zM23.5 11h16.5v0.5h-16.5zM23 11.5h17.5v0.5h-17.5zM22.5 12h18.5v0.5h-18.5zM22 12.5h19.5v0.5h-19.5zM21.5 13h20.5v0.5h-20.5zM21 13.5h21.5v0.5h-21.5zM20.5 14h22.5v0.5h-22.5zM20.5 14.5h23v0.5h-23zM20 15h23.5v0.5h-23.5zM19.5 15.5h24.5v0.5h-24.5zM19.5 16h24.5v0.5h-24.5zM19 16.5h25.5v0.5h-25.5zM18.5 17h26.5v0.5h-26.5zM18.5 17.5h26.5v0.5h-26.5zM18 18h27.5v0.5h-27.5zM18 18.5h28v0.5h-28zM17.5 19h28.5v0.5h-28.5zM17.5 19.5h8v0.5h-8zM27 19.5h19.5v0.5h-19.5zM17 20h8v0.5h-8zM27.5 20h19v0.5h-19zM17 20.5h7.5v0.5h-7.5zM27.5 20.5h19.5v0.5h-19.5zM16.5 21h7.5v0.5h-7.5zM27.5 21h19.5v0.5h-19.5zM16.5 21.5h7v0.5h-7zM27.5 21.5h20v0.5h-20zM16 22h7v0.5h-7zM27.5 22h20v0.5h-20zM16 22.5h6.5v0.5h-6.5zM27 22.5h20.5v0.5h-20.5zM16 23h6.5v0.5h-6.5zM26 23h22v0.5h-22zM15.5 23.5h6.5v0.5h-6.5zM25.5 23.5h23v0.5h-23zM15 24h6.5v0.5h-6.5zM25.5 24h23v0.5h-23zM15 24.5h6.5v0.5h-6.5zM25 24.5h23.5v0.5h-23.5zM15 25h6v0.5h-6zM24.5 25h24.5v0.5h-24.5zM14.5 25.5h6.5v0.5h-6.5zM24.5 25.5h24.5v0.5h-24.5zM14.5 26h6v0.5h-6zM24 26h25v0.5h-25zM14.5 26.5h6v0.5h-6zM23.5 26.5h26v0.5h-26zM14 27h6.5v0.5h-6.5zM23.5 27h26v0.5h-26zM14 27.5h6v0.5h-6zM23 27.5h26.5v0.5h-26.5zM14 28h6v0.5h-6zM23 28h26.5v0.5h-26.5zM14 28.5h6v0.5h-6zM22.5 28.5h27.5v0.5h-27.5zM14 29h5.5v0.5h-5.5zM22.5 29h27.5v0.5h-27.5zM13.5 29.5h6v0.5h-6zM22.5 29.5h27.5v0.5h-27.5zM13.5 30h6v0.5h-6zM22 30h28v0.5h-28zM13.5 30.5h5.5v0.5h-5.5zM22 30.5h28.5v0.5h-28.5zM13.5 31h5.5v0.5h-5.5zM22 31h28.5v0.5h-28.5zM13.5 31.5h5.5v0.5h-5.5zM22 31.5h28.5v0.5h-28.5zM13.5 32h5.5v0.5h-5.5zM21.5 32h29v0.5h-29zM13 32.5h6v0.5h-6zM21.5 32.5h29v0.5h-29zM13 33h5.5v0.5h-5.5zM21.5 33h29v0.5h-29zM13 33.5h5.5v0.5h-5.5zM21.5 33.5h29v0.5h-29zM13 34h5.5v0.5h-5.5zM21.5 34h29.5v0.5h-29.5zM13 34.5h5.5v0.5h-5.5zM21.5 34.5h29.5v0.5h-29.5zM13 35h6v0.5h-6zM21 35h30v0.5h-30zM13 35.5h6.5v0.5h-6.5zM20.5 35.5h30.5v0.5h-30.5zM13 36h38v0.5h-38zM13 36.5h38v0.5h-38zM13 37h38v0.5h-38zM13 37.5h37.5v0.5h-37.5zM13 38h37.5v0.5h-37.5zM13 38.5h37.5v0.5h-37.5zM13.5 39h37v0.5h-37zM13.5 39.5h37v0.5h-37zM13.5 40h37v0.5h-37zM13.5 40.5h36.5v0.5h-36.5zM13.5 41h36.5v0.5h-36.5zM14 41.5h36v0.5h-36zM14 42h36v0.5h-36zM14 42.5h35.5v0.5h-35.5zM14.5 43h35v0.5h-35zM14.5 43.5h35v0.5h-35zM14.5 44h34.5v0.5h-34.5zM15 44.5h34v0.5h-34zM15 45h33.5v0.5h-33.5zM15.5 45.5h33v0.5h-33zM15.5 46h32.5v0.5h-32.5zM16 46.5h32v0.5h-32zM16 47h31.5v0.5h-31.5zM16.5 47.5h31v0.5h-31zM17 48h30v0.5h-30zM17 48.5h29.5v0.5h-29.5zM17.5 49h28.5v0.5h-28.5zM18 49.5h28v0.5h-28zM18.5 50h27v0.5h-27zM19 50.5h26v0.5h-26zM19.5 51h25v0.5h-25zM19.5 51.5h24.5v0.5h-24.5zM20.5 52h23v0.5h-23zM21 52.5h22v0.5h-22zM21.5 53h20.5v0.5h-20.5zM22.5 53.5h18.5v0.5h-18.5zM23.5 54h17v0.5h-17zM24.5 54.5h15v0.5h-15zM25.5 55h12.5v0.5h-12.5zM27 55.5h9.5v0.5h-9.5zM29 56h5.5v0.5h-5.5z"/>
</svg>
